<?xml version="1.0" standalone="no"?>
<!DOCTYPE svg PUBLIC "-//W3C//DTD SVG 20010904//EN"
 "http://www.w3.org/TR/2001/REC-SVG-20010904/DTD/svg10.dtd">
<svg version="1.0" xmlns="http://www.w3.org/2000/svg"
 width="620.000000pt" height="620.000000pt" viewBox="0 0 620.000000 620.000000"
 preserveAspectRatio="xMidYMid meet">
<metadata>
Created by potrace 1.14, written by Peter Selinger 2001-2017
</metadata>
<g transform="translate(0.000000,620.000000) scale(0.100000,-0.100000)"
fill="#000000" stroke="none">
<path d="M206 5775 c-21 -7 -51 -26 -67 -41 -63 -61 -59 112 -59 -2429 0
-1491 4 -2331 10 -2366 28 -151 139 -268 299 -315 38 -11 169 -35 316 -57 17
-3 235 -40 485 -82 509 -85 601 -93 682 -57 30 13 55 33 68 54 19 32 20 49 20
520 l0 486 -27 6 c-16 3 -64 8 -108 11 -44 4 -91 8 -105 10 -14 2 -56 7 -95
10 -38 3 -81 8 -95 10 -14 2 -61 7 -105 10 -44 3 -92 8 -107 11 -19 4 -28 1
-29 -8 0 -7 -1 -113 -2 -236 l0 -223 -51 6 c-183 23 -345 61 -440 104 l-44 21
-1 1872 c0 1029 2 1874 4 1878 3 5 339 -32 491 -55 l40 -6 0 -264 c0 -145 2
-266 5 -269 2 -2 36 -6 74 -10 39 -4 88 -8 110 -11 22 -2 90 -9 150 -15 61 -6
126 -13 145 -15 19 -2 70 -7 113 -11 l78 -7 -3 504 c-3 495 -3 505 -25 544
-30 56 -78 100 -143 129 -45 21 -298 77 -681 151 -9 2 -187 37 -396 79 -209
42 -400 76 -424 76 -24 -1 -61 -7 -83 -15z"/>
<path d="M5810 5747 c-3 -2 -41 -7 -85 -11 -82 -7 -236 -22 -315 -31 -25 -3
-117 -12 -205 -20 -88 -9 -176 -18 -195 -20 -19 -2 -66 -7 -105 -10 -38 -4
-81 -8 -95 -10 -14 -2 -59 -6 -100 -10 -82 -7 -215 -22 -270 -31 -88 -15 -172
-78 -190 -143 -6 -23 -10 -892 -10 -2457 0 -2197 2 -2425 16 -2460 37 -88 119
-115 269 -90 17 3 47 8 68 11 20 3 54 7 75 10 20 3 55 8 77 11 32 4 474 63
590 79 61 8 191 26 215 30 14 2 99 13 190 25 91 12 181 26 201 31 60 15 114
62 145 126 l29 58 0 510 0 510 -332 1 -333 1 -1 -53 c0 -30 0 -166 -1 -303 l0
-248 -77 -26 c-42 -14 -108 -33 -148 -41 -71 -16 -220 -20 -278 -7 l-30 6 -1
1913 0 1912 25 1 c14 0 35 2 46 4 22 3 168 23 225 30 140 18 207 25 222 25 15
0 17 -18 17 -202 0 -112 0 -217 0 -233 l1 -30 335 0 335 0 0 484 c0 516 -2
537 -49 590 -42 46 -88 64 -176 69 -44 2 -82 2 -85 -1z"/>
<path d="M3520 5074 c-41 -6 -97 -15 -125 -18 -27 -4 -129 -18 -225 -32 -96
-14 -193 -27 -215 -30 -22 -3 -78 -11 -125 -19 -47 -7 -110 -16 -140 -20 -182
-20 -267 -76 -289 -187 -6 -32 -10 -248 -10 -546 l1 -492 271 2 272 3 0 367
-1 368 41 15 c86 32 284 63 329 51 l26 -6 0 -903 0 -904 -22 -20 c-36 -33
-199 -76 -561 -147 -98 -19 -202 -46 -231 -59 -62 -28 -101 -75 -114 -135 -6
-25 -9 -273 -9 -595 2 -612 0 -589 68 -638 26 -18 45 -22 108 -22 61 0 271 32
497 77 12 2 39 7 60 10 84 14 660 117 670 120 8 3 12 83 12 270 0 294 4 278
-64 257 -16 -5 -65 -17 -109 -26 -44 -10 -114 -26 -155 -36 -41 -10 -86 -20
-100 -23 -34 -6 -422 -96 -435 -100 -7 -2 -10 65 -11 195 0 172 2 199 15 203
9 3 187 39 396 81 421 84 436 90 454 160 7 27 10 485 8 1393 l-2 1354 -30 24
c-27 22 -39 24 -105 22 -41 -1 -109 -7 -150 -14z"/>
</g>
</svg>
